<?xml version="1.0" standalone="no"?>
<!DOCTYPE svg PUBLIC "-//W3C//DTD SVG 20010904//EN"
 "http://www.w3.org/TR/2001/REC-SVG-20010904/DTD/svg10.dtd">
<svg version="1.0" xmlns="http://www.w3.org/2000/svg"
 width="500.000000pt" height="500.000000pt" viewBox="0 0 500.000000 500.000000"
 preserveAspectRatio="xMidYMid meet">
<metadata>
Created by potrace 1.11, written by Peter Selinger 2001-2013
</metadata>
<g transform="translate(0.000000,500.000000) scale(0.100000,-0.100000)"
fill="#000000" stroke="none">
<path d="M389 4102 l-26 -3 1 -1595 c1 -1587 1 -1594 21 -1595 77 -3 779 2
782 5 3 3 5 410 5 905 0 496 4 899 8 896 5 -3 26 -36 48 -73 21 -37 97 -161
167 -277 288 -473 317 -521 470 -775 33 -55 65 -98 70 -97 6 2 44 59 86 128
80 129 410 673 438 721 33 56 166 275 203 333 l38 60 1 -805 c1 -443 1 -853 1
-912 l0 -108 409 0 c265 0 409 4 410 10 1 13 1 727 0 2103 l-1 1082 -436 0
-436 0 -336 -585 c-184 -322 -343 -600 -352 -619 l-17 -34 -48 84 c-62 110
-77 135 -146 255 -32 56 -71 124 -86 151 -15 27 -82 143 -148 256 -66 114
-127 220 -135 235 -8 15 -44 78 -78 140 -60 105 -66 112 -95 113 -144 2 -798
3 -818 1z"/>
<path d="M3690 3910 c0 -107 4 -222 10 -255 5 -33 12 -82 15 -110 3 -27 10
-75 15 -105 5 -30 12 -75 15 -100 5 -46 15 -113 20 -140 1 -8 6 -40 10 -70 4
-30 8 -62 10 -70 1 -8 6 -42 11 -75 4 -33 8 -62 9 -65 0 -3 5 -32 9 -65 4 -32
9 -66 11 -75 1 -8 6 -42 11 -75 4 -33 8 -62 9 -65 0 -3 5 -31 9 -64 4 -32 9
-68 11 -80 2 -11 7 -41 10 -66 2 -25 7 -56 9 -70 3 -14 7 -45 10 -70 3 -25 8
-56 10 -70 2 -14 12 -80 22 -147 l17 -123 209 2 c115 1 210 4 212 7 2 3 7 29
10 56 4 28 13 93 21 145 8 52 17 120 20 150 3 30 8 62 10 70 2 8 7 40 10 70 3
30 8 66 10 80 3 14 7 43 10 65 5 42 10 80 25 185 5 36 12 81 14 100 22 160 38
279 41 300 2 14 7 48 11 75 3 28 8 57 9 65 2 9 6 43 10 75 4 33 9 67 10 75 2
8 6 40 10 70 4 30 10 64 13 75 2 11 7 126 9 256 l5 237 -461 -2 -461 -1 0
-195z"/>
<path d="M3735 1303 l0 -388 420 0 420 0 -2 340 c-1 187 -2 361 -3 388 l0 47
-418 0 -417 0 0 -387z"/>
</g>
</svg>
