<?xml version="1.0" standalone="no"?>
<!DOCTYPE svg PUBLIC "-//W3C//DTD SVG 20010904//EN"
 "http://www.w3.org/TR/2001/REC-SVG-20010904/DTD/svg10.dtd">
<svg version="1.0" xmlns="http://www.w3.org/2000/svg"
 width="360.000000pt" height="360.000000pt" viewBox="0 0 360.000000 360.000000"
 preserveAspectRatio="xMidYMid meet">
<metadata>
Created by potrace 1.14, written by Peter Selinger 2001-2017
</metadata>
<g transform="translate(0.000000,360.000000) scale(0.100000,-0.100000)"
fill="#000000" stroke="none">
<path d="M292 3585 c-116 -36 -202 -110 -254 -220 l-33 -70 -3 -1347 -2 -1348
700 0 700 0 0 200 0 200 -500 0 -500 0 0 957 0 958 600 -600 600 -600 0 -557
0 -558 200 0 200 0 0 558 0 557 600 600 600 600 0 -958 0 -957 -500 0 -500 0
0 -200 0 -200 700 0 700 0 0 1334 c0 1208 -2 1338 -17 1382 -38 113 -121 205
-230 253 l-58 26 -547 3 -548 3 0 -200 0 -201 355 -2 355 -3 -455 -455 -455
-455 0 658 0 657 -200 0 -200 0 0 -657 0 -658 -455 455 -455 455 355 3 355 2
0 200 0 200 -532 -1 c-412 0 -543 -4 -576 -14z"/>
<path d="M4 353 c17 -158 130 -291 287 -337 42 -13 140 -15 605 -16 305 0 554
3 554 8 0 4 -4 12 -9 18 -5 5 -16 33 -25 62 -20 71 -15 190 13 260 l21 52
-726 0 -725 0 5 -47z"/>
<path d="M1750 394 c-105 -39 -160 -122 -146 -223 7 -54 46 -113 94 -143 42
-26 132 -32 178 -12 41 17 93 70 111 111 32 77 -2 186 -73 235 -39 27 -129 45
-164 32z"/>
<path d="M2150 392 c0 -4 4 -12 9 -17 43 -48 50 -235 13 -319 -12 -27 -22 -50
-22 -52 0 -9 1098 -3 1138 6 24 6 63 20 88 32 48 22 154 112 154 131 0 6 6 18
13 26 21 25 46 96 53 151 l6 50 -726 0 c-399 0 -726 -4 -726 -8z"/>
</g>
</svg>
